<svg xmlns="http://www.w3.org/2000/svg" width="900" height="500" viewBox="0 0 900 500">
<style> .axis{stroke:#333;stroke-width:1} .line{fill:none;stroke-width:2.5} .pt{r:3.5} text{font-family:Arial;font-size:13px} .ttl{font-size:15px;font-weight:bold;fill:#39d0ff} </style>
<line class="axis" x1="60" y1="440" x2="480" y2="440"/>
<line class="axis" x1="60" y1="60" x2="60" y2="440"/>
<text class="ttl" x="60" y="45">Panel A: u/c, κ/K, τ/K  vs  x=R/R_max</text>
<text x="270.0" y="462" text-anchor="middle">x = R/R_max</text>
<text x="26" y="250.0" text-anchor="middle" transform="rotate(-90 26 250.0)">Normalized value</text>
<polyline class="line" stroke="#2266cc" points="60.0,60.0 95.0,61.3 130.0,65.3 165.0,72.1 200.0,81.7 235.0,94.6 270.0,110.9 305.0,131.4 340.0,156.8 375.0,188.7 410.0,229.9 445.0,288.1 480.0,440.0"/>
<circle class="pt" fill="#2266cc" cx="60.0" cy="60.0"/>
<circle class="pt" fill="#2266cc" cx="95.0" cy="61.3"/>
<circle class="pt" fill="#2266cc" cx="130.0" cy="65.3"/>
<circle class="pt" fill="#2266cc" cx="165.0" cy="72.1"/>
<circle class="pt" fill="#2266cc" cx="200.0" cy="81.7"/>
<circle class="pt" fill="#2266cc" cx="235.0" cy="94.6"/>
<circle class="pt" fill="#2266cc" cx="270.0" cy="110.9"/>
<circle class="pt" fill="#2266cc" cx="305.0" cy="131.4"/>
<circle class="pt" fill="#2266cc" cx="340.0" cy="156.8"/>
<circle class="pt" fill="#2266cc" cx="375.0" cy="188.7"/>
<circle class="pt" fill="#2266cc" cx="410.0" cy="229.9"/>
<circle class="pt" fill="#2266cc" cx="445.0" cy="288.1"/>
<circle class="pt" fill="#2266cc" cx="480.0" cy="440.0"/>
<polyline class="line" stroke="#cc2222" points="60.0,440.0 95.0,408.3 130.0,376.7 165.0,345.0 200.0,313.3 235.0,281.7 270.0,250.0 305.0,218.3 340.0,186.7 375.0,155.0 410.0,123.3 445.0,91.7 480.0,60.0"/>
<circle class="pt" fill="#cc2222" cx="60.0" cy="440.0"/>
<circle class="pt" fill="#cc2222" cx="95.0" cy="408.3"/>
<circle class="pt" fill="#cc2222" cx="130.0" cy="376.7"/>
<circle class="pt" fill="#cc2222" cx="165.0" cy="345.0"/>
<circle class="pt" fill="#cc2222" cx="200.0" cy="313.3"/>
<circle class="pt" fill="#cc2222" cx="235.0" cy="281.7"/>
<circle class="pt" fill="#cc2222" cx="270.0" cy="250.0"/>
<circle class="pt" fill="#cc2222" cx="305.0" cy="218.3"/>
<circle class="pt" fill="#cc2222" cx="340.0" cy="186.7"/>
<circle class="pt" fill="#cc2222" cx="375.0" cy="155.0"/>
<circle class="pt" fill="#cc2222" cx="410.0" cy="123.3"/>
<circle class="pt" fill="#cc2222" cx="445.0" cy="91.7"/>
<circle class="pt" fill="#cc2222" cx="480.0" cy="60.0"/>
<polyline class="line" stroke="#22aa22" points="60.0,60.0 95.0,61.3 130.0,65.3 165.0,72.1 200.0,81.7 235.0,94.6 270.0,110.9 305.0,131.4 340.0,156.8 375.0,188.7 410.0,229.9 445.0,288.1 480.0,440.0"/>
<circle class="pt" fill="#22aa22" cx="60.0" cy="60.0"/>
<circle class="pt" fill="#22aa22" cx="95.0" cy="61.3"/>
<circle class="pt" fill="#22aa22" cx="130.0" cy="65.3"/>
<circle class="pt" fill="#22aa22" cx="165.0" cy="72.1"/>
<circle class="pt" fill="#22aa22" cx="200.0" cy="81.7"/>
<circle class="pt" fill="#22aa22" cx="235.0" cy="94.6"/>
<circle class="pt" fill="#22aa22" cx="270.0" cy="110.9"/>
<circle class="pt" fill="#22aa22" cx="305.0" cy="131.4"/>
<circle class="pt" fill="#22aa22" cx="340.0" cy="156.8"/>
<circle class="pt" fill="#22aa22" cx="375.0" cy="188.7"/>
<circle class="pt" fill="#22aa22" cx="410.0" cy="229.9"/>
<circle class="pt" fill="#22aa22" cx="445.0" cy="288.1"/>
<circle class="pt" fill="#22aa22" cx="480.0" cy="440.0"/>
<line class="line" stroke="#2266cc" x1="80" y1="90" x2="105" y2="90"/>
<text x="110" y="94">u/c</text>
<line class="line" stroke="#cc2222" x1="80" y1="112" x2="105" y2="112"/>
<text x="110" y="116">κ/K</text>
<line class="line" stroke="#22aa22" x1="80" y1="134" x2="105" y2="134"/>
<text x="110" y="138">τ/K</text>
<line class="axis" x1="520" y1="440" x2="840" y2="440"/>
<line class="axis" x1="520" y1="60" x2="520" y2="440"/>
<text class="ttl" x="520" y="45">Panel B: (κ/K, τ/K) 参数曲线（单位四分之一圆）</text>
<text x="680.0" y="462" text-anchor="middle">κ/K</text>
<text x="486" y="250.0" text-anchor="middle" transform="rotate(-90 486 250.0)">τ/K</text>
<polyline class="line" stroke="#8822bb" points="520.0,60.0 546.7,61.3 573.3,65.3 600.0,72.1 626.7,81.7 653.3,94.6 680.0,110.9 706.7,131.4 733.3,156.8 760.0,188.7 786.7,229.9 813.3,288.1 840.0,440.0"/>
<circle class="pt" fill="#8822bb" cx="520.0" cy="60.0"/>
<circle class="pt" fill="#8822bb" cx="546.7" cy="61.3"/>
<circle class="pt" fill="#8822bb" cx="573.3" cy="65.3"/>
<circle class="pt" fill="#8822bb" cx="600.0" cy="72.1"/>
<circle class="pt" fill="#8822bb" cx="626.7" cy="81.7"/>
<circle class="pt" fill="#8822bb" cx="653.3" cy="94.6"/>
<circle class="pt" fill="#8822bb" cx="680.0" cy="110.9"/>
<circle class="pt" fill="#8822bb" cx="706.7" cy="131.4"/>
<circle class="pt" fill="#8822bb" cx="733.3" cy="156.8"/>
<circle class="pt" fill="#8822bb" cx="760.0" cy="188.7"/>
<circle class="pt" fill="#8822bb" cx="786.7" cy="229.9"/>
<circle class="pt" fill="#8822bb" cx="813.3" cy="288.1"/>
<circle class="pt" fill="#8822bb" cx="840.0" cy="440.0"/>
</svg>