<svg xmlns="http://www.w3.org/2000/svg" width="960" height="560" viewBox="0 0 960 560">
<style>.axis{stroke:#333;stroke-width:1}.grid{stroke:#ddd;stroke-width:1}.line{fill:none;stroke-width:2.5}.pt{r:3.5}text{font-family:Arial;font-size:13px}.ttl{font-size:15px;font-weight:bold;fill:#39d0ff}.axlbl{fill:#555}</style>
<line class="axis" x1="60.0" y1="500" x2="320.0" y2="500"/>
<line class="axis" x1="60.0" y1="60" x2="60.0" y2="500"/>
<text class="ttl" x="60.0" y="45">图10-2a  u/c 随 R 变化</text>
<text class="axlbl" x="190.0" y="522" text-anchor="middle">R (nm)</text>
<text class="axlbl" x="20.0" y="280.0" text-anchor="middle" transform="rotate(-90 20.0 280.0)">u/c</text>
<line class="grid" x1="60.0" y1="500.0" x2="320.0" y2="500.0"/>
<text class="axlbl" x="52.0" y="504.0" text-anchor="end">0.00</text>
<line class="grid" x1="60.0" y1="395.2" x2="320.0" y2="395.2"/>
<text class="axlbl" x="52.0" y="399.2" text-anchor="end">0.25</text>
<line class="grid" x1="60.0" y1="290.5" x2="320.0" y2="290.5"/>
<text class="axlbl" x="52.0" y="294.5" text-anchor="end">0.50</text>
<line class="grid" x1="60.0" y1="185.7" x2="320.0" y2="185.7"/>
<text class="axlbl" x="52.0" y="189.7" text-anchor="end">0.75</text>
<line class="grid" x1="60.0" y1="81.0" x2="320.0" y2="81.0"/>
<text class="axlbl" x="52.0" y="85.0" text-anchor="end">1.00</text>
<line class="grid" x1="60.0" y1="60" x2="60.0" y2="500"/>
<text class="axlbl" x="60.0" y="518" text-anchor="middle">0</text>
<line class="grid" x1="164.0" y1="60" x2="164.0" y2="500"/>
<text class="axlbl" x="164.0" y="518" text-anchor="middle">100</text>
<line class="grid" x1="268.0" y1="60" x2="268.0" y2="500"/>
<text class="axlbl" x="268.0" y="518" text-anchor="middle">200</text>
<line class="grid" x1="320.0" y1="60" x2="320.0" y2="500"/>
<text class="axlbl" x="320.0" y="518" text-anchor="middle">250</text>
<polyline class="line" stroke="#2266cc" points="60.0,81.0 112.0,145.2 164.0,239.1 216.0,303.6 268.0,345.1 320.0,372.9"/>
<circle class="pt" fill="#2266cc" cx="60.0" cy="81.0"/>
<circle class="pt" fill="#2266cc" cx="112.0" cy="145.2"/>
<circle class="pt" fill="#2266cc" cx="164.0" cy="239.1"/>
<circle class="pt" fill="#2266cc" cx="216.0" cy="303.6"/>
<circle class="pt" fill="#2266cc" cx="268.0" cy="345.1"/>
<circle class="pt" fill="#2266cc" cx="320.0" cy="372.9"/>
<line class="line" stroke="#2266cc" x1="75.0" y1="85" x2="100.0" y2="85"/>
<text x="105.0" y="89">u/c</text>
<line class="axis" x1="350.0" y1="500" x2="610.0" y2="500"/>
<line class="axis" x1="350.0" y1="60" x2="350.0" y2="500"/>
<text class="ttl" x="350.0" y="45">图10-2b  κ, τ 随 R 变化</text>
<text class="axlbl" x="480.0" y="522" text-anchor="middle">R (nm)</text>
<text class="axlbl" x="310.0" y="280.0" text-anchor="middle" transform="rotate(-90 310.0 280.0)">曲率/挠率 (×10⁶ m⁻¹)</text>
<line class="grid" x1="350.0" y1="500.0" x2="610.0" y2="500.0"/>
<text class="axlbl" x="342.0" y="504.0" text-anchor="end">0.0</text>
<line class="grid" x1="350.0" y1="390.0" x2="610.0" y2="390.0"/>
<text class="axlbl" x="342.0" y="394.0" text-anchor="end">4.0</text>
<line class="grid" x1="350.0" y1="280.0" x2="610.0" y2="280.0"/>
<text class="axlbl" x="342.0" y="284.0" text-anchor="end">8.0</text>
<line class="grid" x1="350.0" y1="170.0" x2="610.0" y2="170.0"/>
<text class="axlbl" x="342.0" y="174.0" text-anchor="end">12.0</text>
<line class="grid" x1="350.0" y1="60.0" x2="610.0" y2="60.0"/>
<text class="axlbl" x="342.0" y="64.0" text-anchor="end">16.0</text>
<line class="grid" x1="350.0" y1="60" x2="350.0" y2="500"/>
<text class="axlbl" x="350.0" y="518" text-anchor="middle">0</text>
<line class="grid" x1="454.0" y1="60" x2="454.0" y2="500"/>
<text class="axlbl" x="454.0" y="518" text-anchor="middle">100</text>
<line class="grid" x1="558.0" y1="60" x2="558.0" y2="500"/>
<text class="axlbl" x="558.0" y="518" text-anchor="middle">200</text>
<line class="grid" x1="610.0" y1="60" x2="610.0" y2="500"/>
<text class="axlbl" x="610.0" y="518" text-anchor="middle">250</text>
<polyline class="line" stroke="#cc2222" points="350.0,500.0 402.0,344.3 454.0,331.6 506.0,356.9 558.0,381.3 610.0,400.1"/>
<circle class="pt" fill="#cc2222" cx="350.0" cy="500.0"/>
<circle class="pt" fill="#cc2222" cx="402.0" cy="344.3"/>
<circle class="pt" fill="#cc2222" cx="454.0" cy="331.6"/>
<circle class="pt" fill="#cc2222" cx="506.0" cy="356.9"/>
<circle class="pt" fill="#cc2222" cx="558.0" cy="381.3"/>
<circle class="pt" fill="#cc2222" cx="610.0" cy="400.1"/>
<polyline class="line" stroke="#22aa22" points="350.0,154.4 402.0,252.2 454.0,366.0 506.0,424.1 558.0,452.8 610.0,468.2"/>
<circle class="pt" fill="#22aa22" cx="350.0" cy="154.4"/>
<circle class="pt" fill="#22aa22" cx="402.0" cy="252.2"/>
<circle class="pt" fill="#22aa22" cx="454.0" cy="366.0"/>
<circle class="pt" fill="#22aa22" cx="506.0" cy="424.1"/>
<circle class="pt" fill="#22aa22" cx="558.0" cy="452.8"/>
<circle class="pt" fill="#22aa22" cx="610.0" cy="468.2"/>
<line class="line" stroke="#cc2222" x1="365.0" y1="85" x2="390.0" y2="85"/>
<text x="395.0" y="89">κ (×10⁶)</text>
<line class="line" stroke="#22aa22" x1="365.0" y1="107" x2="390.0" y2="107"/>
<text x="395.0" y="111">τ (×10⁶)</text>
<line class="axis" x1="640.0" y1="500" x2="900.0" y2="500"/>
<line class="axis" x1="640.0" y1="60" x2="640.0" y2="500"/>
<text class="ttl" x="640.0" y="45">图10-2c  κ²+τ² 随 R 变化</text>
<text class="axlbl" x="770.0" y="522" text-anchor="middle">R (nm)</text>
<text class="axlbl" x="600.0" y="280.0" text-anchor="middle" transform="rotate(-90 600.0 280.0)">κ²+τ² (×10¹⁴ m⁻²)</text>
<line class="grid" x1="640.0" y1="500.0" x2="900.0" y2="500.0"/>
<text class="axlbl" x="632.0" y="504.0" text-anchor="end">0.0</text>
<line class="grid" x1="640.0" y1="370.6" x2="900.0" y2="370.6"/>
<text class="axlbl" x="632.0" y="374.6" text-anchor="end">0.5</text>
<line class="grid" x1="640.0" y1="241.2" x2="900.0" y2="241.2"/>
<text class="axlbl" x="632.0" y="245.2" text-anchor="end">1.0</text>
<line class="grid" x1="640.0" y1="111.8" x2="900.0" y2="111.8"/>
<text class="axlbl" x="632.0" y="115.8" text-anchor="end">1.5</text>
<line class="grid" x1="640.0" y1="60" x2="640.0" y2="500"/>
<text class="axlbl" x="640.0" y="518" text-anchor="middle">0</text>
<line class="grid" x1="744.0" y1="60" x2="744.0" y2="500"/>
<text class="axlbl" x="744.0" y="518" text-anchor="middle">100</text>
<line class="grid" x1="848.0" y1="60" x2="848.0" y2="500"/>
<text class="axlbl" x="848.0" y="518" text-anchor="middle">200</text>
<line class="grid" x1="900.0" y1="60" x2="900.0" y2="500"/>
<text class="axlbl" x="900.0" y="518" text-anchor="middle">250</text>
<polyline class="line" stroke="#8822bb" points="640.0,91.3 692.0,207.0 744.0,341.5 796.0,410.2 848.0,444.1 900.0,462.4"/>
<circle class="pt" fill="#8822bb" cx="640.0" cy="91.3"/>
<circle class="pt" fill="#8822bb" cx="692.0" cy="207.0"/>
<circle class="pt" fill="#8822bb" cx="744.0" cy="341.5"/>
<circle class="pt" fill="#8822bb" cx="796.0" cy="410.2"/>
<circle class="pt" fill="#8822bb" cx="848.0" cy="444.1"/>
<circle class="pt" fill="#8822bb" cx="900.0" cy="462.4"/>
<line class="line" stroke="#8822bb" x1="655.0" y1="85" x2="680.0" y2="85"/>
<text x="685.0" y="89">κ²+τ² (×10¹⁴)</text>
</svg>