<?xml version="1.0" encoding="utf-8" standalone="no"?>
<!DOCTYPE svg PUBLIC "-//W3C//DTD SVG 1.1//EN"
  "http://www.w3.org/Graphics/SVG/1.1/DTD/svg11.dtd">
<svg xmlns:xlink="http://www.w3.org/1999/xlink" width="274.773999pt" height="242.479844pt" viewBox="0 0 274.773999 242.479844" xmlns="http://www.w3.org/2000/svg" version="1.1">
 <metadata>
  <rdf:RDF xmlns:dc="http://purl.org/dc/elements/1.1/" xmlns:cc="http://creativecommons.org/ns#" xmlns:rdf="http://www.w3.org/1999/02/22-rdf-syntax-ns#">
   <cc:Work>
    <dc:type rdf:resource="http://purl.org/dc/dcmitype/StillImage"/>
    <dc:date>2026-01-22T13:17:48.927590</dc:date>
    <dc:format>image/svg+xml</dc:format>
    <dc:creator>
     <cc:Agent>
      <dc:title>Matplotlib v3.7.5, https://matplotlib.org/</dc:title>
     </cc:Agent>
    </dc:creator>
   </cc:Work>
  </rdf:RDF>
 </metadata>
 <defs>
  <style type="text/css">*{stroke-linejoin: round; stroke-linecap: butt}</style>
 </defs>
 <g id="figure_1">
  <g id="patch_1">
   <path d="M 0 242.479844 
L 274.773999 242.479844 
L 274.773999 0 
L 0 0 
z
" style="fill: #ffffff"/>
  </g>
  <g id="axes_1">
   <g id="patch_2">
    <path d="M 74.408847 204.9225 
L 115.551153 204.9225 
L 115.551153 34.595 
L 74.408847 34.595 
z
" style="fill: #ffffff"/>
   </g>
   <g id="Quiver_1">
    <path d="M 74.103237 204.87988 
L 90.862287 84.707083 
L 90.208448 84.927454 
L 91.551475 81.999215 
L 92.042107 85.183172 
L 91.473507 84.792323 
L 74.714457 204.96512 
L 74.103237 204.87988 
" clip-path="url(#p8dd48f5ebf)" style="fill: #0000ff"/>
   </g>
   <g id="Quiver_2">
    <path d="M 74.408847 204.613933 
L 88.774369 204.613933 
L 88.465802 203.996798 
L 91.551475 204.9225 
L 88.465802 205.848202 
L 88.774369 205.231067 
L 74.408847 205.231067 
L 74.408847 204.613933 
" clip-path="url(#p8dd48f5ebf)" style="fill: #ff0000"/>
   </g>
   <g id="Quiver_3">
    <path d="M 91.242907 204.9225 
L 91.242907 84.776321 
L 90.625773 85.084888 
L 91.551475 81.999215 
L 92.477176 85.084888 
L 91.860042 84.776321 
L 91.860042 204.9225 
L 91.242907 204.9225 
" clip-path="url(#p8dd48f5ebf)" style="fill: #008000"/>
   </g>
   <g id="matplotlib.axis_1">
    <g id="xtick_1">
     <g id="line2d_1">
      <defs>
       <path id="m3f93382717" d="M 0 0 
L 0 3.5 
" style="stroke: #000000; stroke-width: 0.8"/>
      </defs>
      <g>
       <use xlink:href="#m3f93382717" x="74.408847" y="204.9225" style="stroke: #000000; stroke-width: 0.8"/>
      </g>
     </g>
     <g id="text_1">
      <!-- 0.0 -->
      <g transform="translate(69.408847 219.5775) scale(0.08 -0.08)">
       <defs>
        <path id="TimesNewRomanPSMT-30" d="M 231 2094 
Q 231 2819 450 3342 
Q 669 3866 1031 4122 
Q 1313 4325 1613 4325 
Q 2100 4325 2488 3828 
Q 2972 3213 2972 2159 
Q 2972 1422 2759 906 
Q 2547 391 2217 158 
Q 1888 -75 1581 -75 
Q 975 -75 572 641 
Q 231 1244 231 2094 
z
M 844 2016 
Q 844 1141 1059 588 
Q 1238 122 1591 122 
Q 1759 122 1940 273 
Q 2122 425 2216 781 
Q 2359 1319 2359 2297 
Q 2359 3022 2209 3506 
Q 2097 3866 1919 4016 
Q 1791 4119 1609 4119 
Q 1397 4119 1231 3928 
Q 1006 3669 925 3112 
Q 844 2556 844 2016 
z
" transform="scale(0.015625)"/>
        <path id="TimesNewRomanPSMT-2e" d="M 800 606 
Q 947 606 1047 504 
Q 1147 403 1147 259 
Q 1147 116 1045 14 
Q 944 -88 800 -88 
Q 656 -88 554 14 
Q 453 116 453 259 
Q 453 406 554 506 
Q 656 606 800 606 
z
" transform="scale(0.015625)"/>
       </defs>
       <use xlink:href="#TimesNewRomanPSMT-30"/>
       <use xlink:href="#TimesNewRomanPSMT-2e" x="50"/>
       <use xlink:href="#TimesNewRomanPSMT-30" x="75"/>
      </g>
     </g>
    </g>
    <g id="xtick_2">
     <g id="line2d_2">
      <g>
       <use xlink:href="#m3f93382717" x="102.979893" y="204.9225" style="stroke: #000000; stroke-width: 0.8"/>
      </g>
     </g>
     <g id="text_2">
      <!-- 2.5 -->
      <g transform="translate(97.979893 219.5775) scale(0.08 -0.08)">
       <defs>
        <path id="TimesNewRomanPSMT-32" d="M 2934 816 
L 2638 0 
L 138 0 
L 138 116 
Q 1241 1122 1691 1759 
Q 2141 2397 2141 2925 
Q 2141 3328 1894 3587 
Q 1647 3847 1303 3847 
Q 991 3847 742 3664 
Q 494 3481 375 3128 
L 259 3128 
Q 338 3706 661 4015 
Q 984 4325 1469 4325 
Q 1984 4325 2329 3994 
Q 2675 3663 2675 3213 
Q 2675 2891 2525 2569 
Q 2294 2063 1775 1497 
Q 997 647 803 472 
L 1909 472 
Q 2247 472 2383 497 
Q 2519 522 2628 598 
Q 2738 675 2819 816 
L 2934 816 
z
" transform="scale(0.015625)"/>
        <path id="TimesNewRomanPSMT-35" d="M 2778 4238 
L 2534 3706 
L 1259 3706 
L 981 3138 
Q 1809 3016 2294 2522 
Q 2709 2097 2709 1522 
Q 2709 1188 2573 903 
Q 2438 619 2231 419 
Q 2025 219 1772 97 
Q 1413 -75 1034 -75 
Q 653 -75 479 54 
Q 306 184 306 341 
Q 306 428 378 495 
Q 450 563 559 563 
Q 641 563 702 538 
Q 763 513 909 409 
Q 1144 247 1384 247 
Q 1750 247 2026 523 
Q 2303 800 2303 1197 
Q 2303 1581 2056 1914 
Q 1809 2247 1375 2428 
Q 1034 2569 447 2591 
L 1259 4238 
L 2778 4238 
z
" transform="scale(0.015625)"/>
       </defs>
       <use xlink:href="#TimesNewRomanPSMT-32"/>
       <use xlink:href="#TimesNewRomanPSMT-2e" x="50"/>
       <use xlink:href="#TimesNewRomanPSMT-35" x="75"/>
      </g>
     </g>
    </g>
    <g id="text_3">
     <!-- Speed Component (m/s) -->
     <g transform="translate(41.513125 232.926875) scale(0.11 -0.11)">
      <defs>
       <path id="TimesNewRomanPSMT-53" d="M 2934 4334 
L 2934 2869 
L 2819 2869 
Q 2763 3291 2617 3541 
Q 2472 3791 2203 3937 
Q 1934 4084 1647 4084 
Q 1322 4084 1109 3886 
Q 897 3688 897 3434 
Q 897 3241 1031 3081 
Q 1225 2847 1953 2456 
Q 2547 2138 2764 1967 
Q 2981 1797 3098 1565 
Q 3216 1334 3216 1081 
Q 3216 600 2842 251 
Q 2469 -97 1881 -97 
Q 1697 -97 1534 -69 
Q 1438 -53 1133 45 
Q 828 144 747 144 
Q 669 144 623 97 
Q 578 50 556 -97 
L 441 -97 
L 441 1356 
L 556 1356 
Q 638 900 775 673 
Q 913 447 1195 297 
Q 1478 147 1816 147 
Q 2206 147 2432 353 
Q 2659 559 2659 841 
Q 2659 997 2573 1156 
Q 2488 1316 2306 1453 
Q 2184 1547 1640 1851 
Q 1097 2156 867 2337 
Q 638 2519 519 2737 
Q 400 2956 400 3219 
Q 400 3675 750 4004 
Q 1100 4334 1641 4334 
Q 1978 4334 2356 4169 
Q 2531 4091 2603 4091 
Q 2684 4091 2736 4139 
Q 2788 4188 2819 4334 
L 2934 4334 
z
" transform="scale(0.015625)"/>
       <path id="TimesNewRomanPSMT-70" d="M -6 2578 
L 875 2934 
L 994 2934 
L 994 2266 
Q 1216 2644 1439 2795 
Q 1663 2947 1909 2947 
Q 2341 2947 2628 2609 
Q 2981 2197 2981 1534 
Q 2981 794 2556 309 
Q 2206 -88 1675 -88 
Q 1444 -88 1275 -22 
Q 1150 25 994 166 
L 994 -706 
Q 994 -1000 1030 -1079 
Q 1066 -1159 1155 -1206 
Q 1244 -1253 1478 -1253 
L 1478 -1369 
L -22 -1369 
L -22 -1253 
L 56 -1253 
Q 228 -1256 350 -1188 
Q 409 -1153 442 -1076 
Q 475 -1000 475 -688 
L 475 2019 
Q 475 2297 450 2372 
Q 425 2447 370 2484 
Q 316 2522 222 2522 
Q 147 2522 31 2478 
L -6 2578 
z
M 994 2081 
L 994 1013 
Q 994 666 1022 556 
Q 1066 375 1236 237 
Q 1406 100 1666 100 
Q 1978 100 2172 344 
Q 2425 663 2425 1241 
Q 2425 1897 2138 2250 
Q 1938 2494 1663 2494 
Q 1513 2494 1366 2419 
Q 1253 2363 994 2081 
z
" transform="scale(0.015625)"/>
       <path id="TimesNewRomanPSMT-65" d="M 681 1784 
Q 678 1147 991 784 
Q 1303 422 1725 422 
Q 2006 422 2214 576 
Q 2422 731 2563 1106 
L 2659 1044 
Q 2594 616 2278 264 
Q 1963 -88 1488 -88 
Q 972 -88 605 314 
Q 238 716 238 1394 
Q 238 2128 614 2539 
Q 991 2950 1559 2950 
Q 2041 2950 2350 2633 
Q 2659 2316 2659 1784 
L 681 1784 
z
M 681 1966 
L 2006 1966 
Q 1991 2241 1941 2353 
Q 1863 2528 1708 2628 
Q 1553 2728 1384 2728 
Q 1125 2728 920 2526 
Q 716 2325 681 1966 
z
" transform="scale(0.015625)"/>
       <path id="TimesNewRomanPSMT-64" d="M 2222 322 
Q 2013 103 1813 7 
Q 1613 -88 1381 -88 
Q 913 -88 563 304 
Q 213 697 213 1313 
Q 213 1928 600 2439 
Q 988 2950 1597 2950 
Q 1975 2950 2222 2709 
L 2222 3238 
Q 2222 3728 2198 3840 
Q 2175 3953 2125 3993 
Q 2075 4034 2000 4034 
Q 1919 4034 1784 3984 
L 1744 4094 
L 2597 4444 
L 2738 4444 
L 2738 1134 
Q 2738 631 2761 520 
Q 2784 409 2836 365 
Q 2888 322 2956 322 
Q 3041 322 3181 375 
L 3216 266 
L 2366 -88 
L 2222 -88 
L 2222 322 
z
M 2222 541 
L 2222 2016 
Q 2203 2228 2109 2403 
Q 2016 2578 1861 2667 
Q 1706 2756 1559 2756 
Q 1284 2756 1069 2509 
Q 784 2184 784 1559 
Q 784 928 1059 592 
Q 1334 256 1672 256 
Q 1956 256 2222 541 
z
" transform="scale(0.015625)"/>
       <path id="TimesNewRomanPSMT-20" transform="scale(0.015625)"/>
       <path id="TimesNewRomanPSMT-43" d="M 3853 4334 
L 3950 2894 
L 3853 2894 
Q 3659 3541 3300 3825 
Q 2941 4109 2438 4109 
Q 2016 4109 1675 3895 
Q 1334 3681 1139 3212 
Q 944 2744 944 2047 
Q 944 1472 1128 1050 
Q 1313 628 1683 403 
Q 2053 178 2528 178 
Q 2941 178 3256 354 
Q 3572 531 3950 1056 
L 4047 994 
Q 3728 428 3303 165 
Q 2878 -97 2294 -97 
Q 1241 -97 663 684 
Q 231 1266 231 2053 
Q 231 2688 515 3219 
Q 800 3750 1298 4042 
Q 1797 4334 2388 4334 
Q 2847 4334 3294 4109 
Q 3425 4041 3481 4041 
Q 3566 4041 3628 4100 
Q 3709 4184 3744 4334 
L 3853 4334 
z
" transform="scale(0.015625)"/>
       <path id="TimesNewRomanPSMT-6f" d="M 1600 2947 
Q 2250 2947 2644 2453 
Q 2978 2031 2978 1484 
Q 2978 1100 2793 706 
Q 2609 313 2286 112 
Q 1963 -88 1566 -88 
Q 919 -88 538 428 
Q 216 863 216 1403 
Q 216 1797 411 2186 
Q 606 2575 925 2761 
Q 1244 2947 1600 2947 
z
M 1503 2744 
Q 1338 2744 1170 2645 
Q 1003 2547 900 2300 
Q 797 2053 797 1666 
Q 797 1041 1045 587 
Q 1294 134 1700 134 
Q 2003 134 2200 384 
Q 2397 634 2397 1244 
Q 2397 2006 2069 2444 
Q 1847 2744 1503 2744 
z
" transform="scale(0.015625)"/>
       <path id="TimesNewRomanPSMT-6d" d="M 1050 2338 
Q 1363 2650 1419 2697 
Q 1559 2816 1721 2881 
Q 1884 2947 2044 2947 
Q 2313 2947 2506 2790 
Q 2700 2634 2766 2338 
Q 3088 2713 3309 2830 
Q 3531 2947 3766 2947 
Q 3994 2947 4170 2830 
Q 4347 2713 4450 2447 
Q 4519 2266 4519 1878 
L 4519 647 
Q 4519 378 4559 278 
Q 4591 209 4675 161 
Q 4759 113 4950 113 
L 4950 0 
L 3538 0 
L 3538 113 
L 3597 113 
Q 3781 113 3884 184 
Q 3956 234 3988 344 
Q 4000 397 4000 647 
L 4000 1878 
Q 4000 2228 3916 2372 
Q 3794 2572 3525 2572 
Q 3359 2572 3192 2489 
Q 3025 2406 2788 2181 
L 2781 2147 
L 2788 2013 
L 2788 647 
Q 2788 353 2820 281 
Q 2853 209 2943 161 
Q 3034 113 3253 113 
L 3253 0 
L 1806 0 
L 1806 113 
Q 2044 113 2133 169 
Q 2222 225 2256 338 
Q 2272 391 2272 647 
L 2272 1878 
Q 2272 2228 2169 2381 
Q 2031 2581 1784 2581 
Q 1616 2581 1450 2491 
Q 1191 2353 1050 2181 
L 1050 647 
Q 1050 366 1089 281 
Q 1128 197 1204 155 
Q 1281 113 1516 113 
L 1516 0 
L 100 0 
L 100 113 
Q 297 113 375 155 
Q 453 197 493 289 
Q 534 381 534 647 
L 534 1741 
Q 534 2213 506 2350 
Q 484 2453 437 2492 
Q 391 2531 309 2531 
Q 222 2531 100 2484 
L 53 2597 
L 916 2947 
L 1050 2947 
L 1050 2338 
z
" transform="scale(0.015625)"/>
       <path id="TimesNewRomanPSMT-6e" d="M 1034 2341 
Q 1538 2947 1994 2947 
Q 2228 2947 2397 2830 
Q 2566 2713 2666 2444 
Q 2734 2256 2734 1869 
L 2734 647 
Q 2734 375 2778 278 
Q 2813 200 2889 156 
Q 2966 113 3172 113 
L 3172 0 
L 1756 0 
L 1756 113 
L 1816 113 
Q 2016 113 2095 173 
Q 2175 234 2206 353 
Q 2219 400 2219 647 
L 2219 1819 
Q 2219 2209 2117 2386 
Q 2016 2563 1775 2563 
Q 1403 2563 1034 2156 
L 1034 647 
Q 1034 356 1069 288 
Q 1113 197 1189 155 
Q 1266 113 1500 113 
L 1500 0 
L 84 0 
L 84 113 
L 147 113 
Q 366 113 442 223 
Q 519 334 519 647 
L 519 1709 
Q 519 2225 495 2337 
Q 472 2450 423 2490 
Q 375 2531 294 2531 
Q 206 2531 84 2484 
L 38 2597 
L 900 2947 
L 1034 2947 
L 1034 2341 
z
" transform="scale(0.015625)"/>
       <path id="TimesNewRomanPSMT-74" d="M 1031 3803 
L 1031 2863 
L 1700 2863 
L 1700 2644 
L 1031 2644 
L 1031 788 
Q 1031 509 1111 412 
Q 1191 316 1316 316 
Q 1419 316 1516 380 
Q 1613 444 1666 569 
L 1788 569 
Q 1678 263 1478 108 
Q 1278 -47 1066 -47 
Q 922 -47 784 33 
Q 647 113 581 261 
Q 516 409 516 719 
L 516 2644 
L 63 2644 
L 63 2747 
Q 234 2816 414 2980 
Q 594 3144 734 3369 
Q 806 3488 934 3803 
L 1031 3803 
z
" transform="scale(0.015625)"/>
       <path id="TimesNewRomanPSMT-28" d="M 1988 -1253 
L 1988 -1369 
Q 1516 -1131 1200 -813 
Q 750 -359 506 256 
Q 263 872 263 1534 
Q 263 2503 741 3301 
Q 1219 4100 1988 4444 
L 1988 4313 
Q 1603 4100 1356 3731 
Q 1109 3363 987 2797 
Q 866 2231 866 1616 
Q 866 947 969 400 
Q 1050 -31 1165 -292 
Q 1281 -553 1476 -793 
Q 1672 -1034 1988 -1253 
z
" transform="scale(0.015625)"/>
       <path id="TimesNewRomanPSMT-2f" d="M 1794 4444 
L 259 -88 
L 9 -88 
L 1544 4444 
L 1794 4444 
z
" transform="scale(0.015625)"/>
       <path id="TimesNewRomanPSMT-73" d="M 2050 2947 
L 2050 1972 
L 1947 1972 
Q 1828 2431 1642 2597 
Q 1456 2763 1169 2763 
Q 950 2763 815 2647 
Q 681 2531 681 2391 
Q 681 2216 781 2091 
Q 878 1963 1175 1819 
L 1631 1597 
Q 2266 1288 2266 781 
Q 2266 391 1970 151 
Q 1675 -88 1309 -88 
Q 1047 -88 709 6 
Q 606 38 541 38 
Q 469 38 428 -44 
L 325 -44 
L 325 978 
L 428 978 
Q 516 541 762 319 
Q 1009 97 1316 97 
Q 1531 97 1667 223 
Q 1803 350 1803 528 
Q 1803 744 1651 891 
Q 1500 1038 1047 1263 
Q 594 1488 453 1669 
Q 313 1847 313 2119 
Q 313 2472 555 2709 
Q 797 2947 1181 2947 
Q 1350 2947 1591 2875 
Q 1750 2828 1803 2828 
Q 1853 2828 1881 2850 
Q 1909 2872 1947 2947 
L 2050 2947 
z
" transform="scale(0.015625)"/>
       <path id="TimesNewRomanPSMT-29" d="M 144 4313 
L 144 4444 
Q 619 4209 934 3891 
Q 1381 3434 1625 2820 
Q 1869 2206 1869 1541 
Q 1869 572 1392 -226 
Q 916 -1025 144 -1369 
L 144 -1253 
Q 528 -1038 776 -670 
Q 1025 -303 1145 264 
Q 1266 831 1266 1447 
Q 1266 2113 1163 2663 
Q 1084 3094 967 3353 
Q 850 3613 656 3853 
Q 463 4094 144 4313 
z
" transform="scale(0.015625)"/>
      </defs>
      <use xlink:href="#TimesNewRomanPSMT-53"/>
      <use xlink:href="#TimesNewRomanPSMT-70" x="55.615234"/>
      <use xlink:href="#TimesNewRomanPSMT-65" x="105.615234"/>
      <use xlink:href="#TimesNewRomanPSMT-65" x="150"/>
      <use xlink:href="#TimesNewRomanPSMT-64" x="194.384766"/>
      <use xlink:href="#TimesNewRomanPSMT-20" x="244.384766"/>
      <use xlink:href="#TimesNewRomanPSMT-43" x="269.384766"/>
      <use xlink:href="#TimesNewRomanPSMT-6f" x="336.083984"/>
      <use xlink:href="#TimesNewRomanPSMT-6d" x="386.083984"/>
      <use xlink:href="#TimesNewRomanPSMT-70" x="463.867188"/>
      <use xlink:href="#TimesNewRomanPSMT-6f" x="513.867188"/>
      <use xlink:href="#TimesNewRomanPSMT-6e" x="563.867188"/>
      <use xlink:href="#TimesNewRomanPSMT-65" x="613.867188"/>
      <use xlink:href="#TimesNewRomanPSMT-6e" x="658.251953"/>
      <use xlink:href="#TimesNewRomanPSMT-74" x="708.251953"/>
      <use xlink:href="#TimesNewRomanPSMT-20" x="736.035156"/>
      <use xlink:href="#TimesNewRomanPSMT-28" x="761.035156"/>
      <use xlink:href="#TimesNewRomanPSMT-6d" x="794.335938"/>
      <use xlink:href="#TimesNewRomanPSMT-2f" x="872.119141"/>
      <use xlink:href="#TimesNewRomanPSMT-73" x="899.902344"/>
      <use xlink:href="#TimesNewRomanPSMT-29" x="938.818359"/>
     </g>
    </g>
    <g id="text_4">
     <!-- 1e8 -->
     <g transform="translate(103.999903 229.84375) scale(0.08 -0.08)">
      <defs>
       <path id="TimesNewRomanPSMT-31" d="M 750 3822 
L 1781 4325 
L 1884 4325 
L 1884 747 
Q 1884 391 1914 303 
Q 1944 216 2037 169 
Q 2131 122 2419 116 
L 2419 0 
L 825 0 
L 825 116 
Q 1125 122 1212 167 
Q 1300 213 1334 289 
Q 1369 366 1369 747 
L 1369 3034 
Q 1369 3497 1338 3628 
Q 1316 3728 1258 3775 
Q 1200 3822 1119 3822 
Q 1003 3822 797 3725 
L 750 3822 
z
" transform="scale(0.015625)"/>
       <path id="TimesNewRomanPSMT-38" d="M 1228 2134 
Q 725 2547 579 2797 
Q 434 3047 434 3316 
Q 434 3728 753 4026 
Q 1072 4325 1600 4325 
Q 2113 4325 2425 4047 
Q 2738 3769 2738 3413 
Q 2738 3175 2569 2928 
Q 2400 2681 1866 2347 
Q 2416 1922 2594 1678 
Q 2831 1359 2831 1006 
Q 2831 559 2490 242 
Q 2150 -75 1597 -75 
Q 994 -75 656 303 
Q 388 606 388 966 
Q 388 1247 577 1523 
Q 766 1800 1228 2134 
z
M 1719 2469 
Q 2094 2806 2194 3001 
Q 2294 3197 2294 3444 
Q 2294 3772 2109 3958 
Q 1925 4144 1606 4144 
Q 1288 4144 1088 3959 
Q 888 3775 888 3528 
Q 888 3366 970 3203 
Q 1053 3041 1206 2894 
L 1719 2469 
z
M 1375 2016 
Q 1116 1797 991 1539 
Q 866 1281 866 981 
Q 866 578 1086 336 
Q 1306 94 1647 94 
Q 1984 94 2187 284 
Q 2391 475 2391 747 
Q 2391 972 2272 1150 
Q 2050 1481 1375 2016 
z
" transform="scale(0.015625)"/>
      </defs>
      <use xlink:href="#TimesNewRomanPSMT-31"/>
      <use xlink:href="#TimesNewRomanPSMT-65" x="50"/>
      <use xlink:href="#TimesNewRomanPSMT-38" x="94.384766"/>
     </g>
    </g>
   </g>
   <g id="matplotlib.axis_2">
    <g id="ytick_1">
     <g id="line2d_3">
      <defs>
       <path id="mf1d7d319ca" d="M 0 0 
L -3.5 0 
" style="stroke: #000000; stroke-width: 0.8"/>
      </defs>
      <g>
       <use xlink:href="#mf1d7d319ca" x="74.408847" y="204.9225" style="stroke: #000000; stroke-width: 0.8"/>
      </g>
     </g>
     <g id="text_5">
      <!-- 0.0 -->
      <g transform="translate(55.308847 207.7) scale(0.08 -0.08)">
       <use xlink:href="#TimesNewRomanPSMT-30"/>
       <use xlink:href="#TimesNewRomanPSMT-2e" x="50"/>
       <use xlink:href="#TimesNewRomanPSMT-30" x="75"/>
      </g>
     </g>
    </g>
    <g id="ytick_2">
     <g id="line2d_4">
      <g>
       <use xlink:href="#mf1d7d319ca" x="74.408847" y="181.265903" style="stroke: #000000; stroke-width: 0.8"/>
      </g>
     </g>
     <g id="text_6">
      <!-- 0.5 -->
      <g transform="translate(55.308847 184.043403) scale(0.08 -0.08)">
       <use xlink:href="#TimesNewRomanPSMT-30"/>
       <use xlink:href="#TimesNewRomanPSMT-2e" x="50"/>
       <use xlink:href="#TimesNewRomanPSMT-35" x="75"/>
      </g>
     </g>
    </g>
    <g id="ytick_3">
     <g id="line2d_5">
      <g>
       <use xlink:href="#mf1d7d319ca" x="74.408847" y="157.609306" style="stroke: #000000; stroke-width: 0.8"/>
      </g>
     </g>
     <g id="text_7">
      <!-- 1.0 -->
      <g transform="translate(55.308847 160.386806) scale(0.08 -0.08)">
       <use xlink:href="#TimesNewRomanPSMT-31"/>
       <use xlink:href="#TimesNewRomanPSMT-2e" x="50"/>
       <use xlink:href="#TimesNewRomanPSMT-30" x="75"/>
      </g>
     </g>
    </g>
    <g id="ytick_4">
     <g id="line2d_6">
      <g>
       <use xlink:href="#mf1d7d319ca" x="74.408847" y="133.952708" style="stroke: #000000; stroke-width: 0.8"/>
      </g>
     </g>
     <g id="text_8">
      <!-- 1.5 -->
      <g transform="translate(55.308847 136.730208) scale(0.08 -0.08)">
       <use xlink:href="#TimesNewRomanPSMT-31"/>
       <use xlink:href="#TimesNewRomanPSMT-2e" x="50"/>
       <use xlink:href="#TimesNewRomanPSMT-35" x="75"/>
      </g>
     </g>
    </g>
    <g id="ytick_5">
     <g id="line2d_7">
      <g>
       <use xlink:href="#mf1d7d319ca" x="74.408847" y="110.296111" style="stroke: #000000; stroke-width: 0.8"/>
      </g>
     </g>
     <g id="text_9">
      <!-- 2.0 -->
      <g transform="translate(55.308847 113.073611) scale(0.08 -0.08)">
       <use xlink:href="#TimesNewRomanPSMT-32"/>
       <use xlink:href="#TimesNewRomanPSMT-2e" x="50"/>
       <use xlink:href="#TimesNewRomanPSMT-30" x="75"/>
      </g>
     </g>
    </g>
    <g id="ytick_6">
     <g id="line2d_8">
      <g>
       <use xlink:href="#mf1d7d319ca" x="74.408847" y="86.639514" style="stroke: #000000; stroke-width: 0.8"/>
      </g>
     </g>
     <g id="text_10">
      <!-- 2.5 -->
      <g transform="translate(55.308847 89.417014) scale(0.08 -0.08)">
       <use xlink:href="#TimesNewRomanPSMT-32"/>
       <use xlink:href="#TimesNewRomanPSMT-2e" x="50"/>
       <use xlink:href="#TimesNewRomanPSMT-35" x="75"/>
      </g>
     </g>
    </g>
    <g id="ytick_7">
     <g id="line2d_9">
      <g>
       <use xlink:href="#mf1d7d319ca" x="74.408847" y="62.982917" style="stroke: #000000; stroke-width: 0.8"/>
      </g>
     </g>
     <g id="text_11">
      <!-- 3.0 -->
      <g transform="translate(55.308847 65.760417) scale(0.08 -0.08)">
       <defs>
        <path id="TimesNewRomanPSMT-33" d="M 325 3431 
Q 506 3859 782 4092 
Q 1059 4325 1472 4325 
Q 1981 4325 2253 3994 
Q 2459 3747 2459 3466 
Q 2459 3003 1878 2509 
Q 2269 2356 2469 2072 
Q 2669 1788 2669 1403 
Q 2669 853 2319 450 
Q 1863 -75 997 -75 
Q 569 -75 414 31 
Q 259 138 259 259 
Q 259 350 332 419 
Q 406 488 509 488 
Q 588 488 669 463 
Q 722 447 909 348 
Q 1097 250 1169 231 
Q 1284 197 1416 197 
Q 1734 197 1970 444 
Q 2206 691 2206 1028 
Q 2206 1275 2097 1509 
Q 2016 1684 1919 1775 
Q 1784 1900 1550 2001 
Q 1316 2103 1072 2103 
L 972 2103 
L 972 2197 
Q 1219 2228 1467 2375 
Q 1716 2522 1828 2728 
Q 1941 2934 1941 3181 
Q 1941 3503 1739 3701 
Q 1538 3900 1238 3900 
Q 753 3900 428 3381 
L 325 3431 
z
" transform="scale(0.015625)"/>
       </defs>
       <use xlink:href="#TimesNewRomanPSMT-33"/>
       <use xlink:href="#TimesNewRomanPSMT-2e" x="50"/>
       <use xlink:href="#TimesNewRomanPSMT-30" x="75"/>
      </g>
     </g>
    </g>
    <g id="ytick_8">
     <g id="line2d_10">
      <g>
       <use xlink:href="#mf1d7d319ca" x="74.408847" y="39.326319" style="stroke: #000000; stroke-width: 0.8"/>
      </g>
     </g>
     <g id="text_12">
      <!-- 3.5 -->
      <g transform="translate(55.308847 42.103819) scale(0.08 -0.08)">
       <use xlink:href="#TimesNewRomanPSMT-33"/>
       <use xlink:href="#TimesNewRomanPSMT-2e" x="50"/>
       <use xlink:href="#TimesNewRomanPSMT-35" x="75"/>
      </g>
     </g>
    </g>
    <g id="text_13">
     <!-- Speed Component (m/s) -->
     <g transform="translate(48.955878 173.225625) rotate(-90) scale(0.11 -0.11)">
      <use xlink:href="#TimesNewRomanPSMT-53"/>
      <use xlink:href="#TimesNewRomanPSMT-70" x="55.615234"/>
      <use xlink:href="#TimesNewRomanPSMT-65" x="105.615234"/>
      <use xlink:href="#TimesNewRomanPSMT-65" x="150"/>
      <use xlink:href="#TimesNewRomanPSMT-64" x="194.384766"/>
      <use xlink:href="#TimesNewRomanPSMT-20" x="244.384766"/>
      <use xlink:href="#TimesNewRomanPSMT-43" x="269.384766"/>
      <use xlink:href="#TimesNewRomanPSMT-6f" x="336.083984"/>
      <use xlink:href="#TimesNewRomanPSMT-6d" x="386.083984"/>
      <use xlink:href="#TimesNewRomanPSMT-70" x="463.867188"/>
      <use xlink:href="#TimesNewRomanPSMT-6f" x="513.867188"/>
      <use xlink:href="#TimesNewRomanPSMT-6e" x="563.867188"/>
      <use xlink:href="#TimesNewRomanPSMT-65" x="613.867188"/>
      <use xlink:href="#TimesNewRomanPSMT-6e" x="658.251953"/>
      <use xlink:href="#TimesNewRomanPSMT-74" x="708.251953"/>
      <use xlink:href="#TimesNewRomanPSMT-20" x="736.035156"/>
      <use xlink:href="#TimesNewRomanPSMT-28" x="761.035156"/>
      <use xlink:href="#TimesNewRomanPSMT-6d" x="794.335938"/>
      <use xlink:href="#TimesNewRomanPSMT-2f" x="872.119141"/>
      <use xlink:href="#TimesNewRomanPSMT-73" x="899.902344"/>
      <use xlink:href="#TimesNewRomanPSMT-29" x="938.818359"/>
     </g>
    </g>
    <g id="text_14">
     <!-- 1e8 -->
     <g transform="translate(74.408847 31.595) scale(0.08 -0.08)">
      <use xlink:href="#TimesNewRomanPSMT-31"/>
      <use xlink:href="#TimesNewRomanPSMT-65" x="50"/>
      <use xlink:href="#TimesNewRomanPSMT-38" x="94.384766"/>
     </g>
    </g>
   </g>
   <g id="line2d_11">
    <path d="M 74.408847 204.9225 
L 91.551475 81.999215 
" clip-path="url(#p8dd48f5ebf)" style="fill: none; stroke-dasharray: 3.7,1.6; stroke-dashoffset: 0; stroke: #0000ff; stroke-opacity: 0.5"/>
   </g>
   <g id="line2d_12">
    <path d="M 91.551475 204.9225 
L 91.551475 81.999215 
" clip-path="url(#p8dd48f5ebf)" style="fill: none; stroke-dasharray: 3.7,1.6; stroke-dashoffset: 0; stroke: #008000; stroke-opacity: 0.5"/>
   </g>
   <g id="line2d_13">
    <path d="M 74.408847 204.9225 
L 74.420509 204.838879 
L 74.43217 204.755257 
L 74.443832 204.671636 
L 74.455494 204.588015 
L 74.467155 204.504394 
L 74.478817 204.420772 
L 74.490479 204.337151 
L 74.50214 204.25353 
L 74.513802 204.169908 
L 74.525464 204.086287 
L 74.537125 204.002666 
L 74.548787 203.919045 
L 74.560449 203.835423 
L 74.57211 203.751802 
L 74.583772 203.668181 
L 74.595434 203.584559 
L 74.607095 203.500938 
L 74.618757 203.417317 
L 74.630419 203.333696 
L 74.64208 203.250074 
L 74.653742 203.166453 
L 74.665403 203.082832 
L 74.677065 202.999211 
L 74.688727 202.915589 
L 74.700388 202.831968 
L 74.71205 202.748347 
L 74.723712 202.664725 
L 74.735373 202.581104 
L 74.747035 202.497483 
L 74.758697 202.413862 
L 74.770358 202.33024 
L 74.78202 202.246619 
L 74.793682 202.162998 
L 74.805343 202.079376 
L 74.817005 201.995755 
L 74.828667 201.912134 
L 74.840328 201.828513 
L 74.85199 201.744891 
L 74.863652 201.66127 
L 74.875313 201.577649 
L 74.886975 201.494027 
L 74.898637 201.410406 
L 74.910298 201.326785 
L 74.92196 201.243164 
L 74.933621 201.159542 
L 74.945283 201.075921 
L 74.956945 200.9923 
L 74.968606 200.908678 
L 74.980268 200.825057 
" clip-path="url(#p8dd48f5ebf)" style="fill: none; stroke-dasharray: 3.7,1.6; stroke-dashoffset: 0; stroke: #800080"/>
   </g>
   <g id="patch_3">
    <path d="M 74.408847 204.9225 
L 74.408847 34.595 
" style="fill: none; stroke: #000000; stroke-width: 0.8; stroke-linejoin: miter; stroke-linecap: square"/>
   </g>
   <g id="patch_4">
    <path d="M 115.551153 204.9225 
L 115.551153 34.595 
" style="fill: none; stroke: #000000; stroke-width: 0.8; stroke-linejoin: miter; stroke-linecap: square"/>
   </g>
   <g id="patch_5">
    <path d="M 74.408847 204.9225 
L 115.551153 204.9225 
" style="fill: none; stroke: #000000; stroke-width: 0.8; stroke-linejoin: miter; stroke-linecap: square"/>
   </g>
   <g id="patch_6">
    <path d="M 74.408847 34.595 
L 115.551153 34.595 
" style="fill: none; stroke: #000000; stroke-width: 0.8; stroke-linejoin: miter; stroke-linecap: square"/>
   </g>
   <g id="text_15">
    <!-- $c$ -->
    <g style="fill: #0000ff" transform="translate(76.380161 143.460858) scale(0.12 -0.12)">
     <defs>
      <path id="DejaVuSans-Oblique-63" d="M 3431 3366 
L 3316 2797 
Q 3109 2947 2876 3022 
Q 2644 3097 2394 3097 
Q 2119 3097 1870 3000 
Q 1622 2903 1453 2725 
Q 1184 2453 1037 2087 
Q 891 1722 891 1331 
Q 891 859 1127 628 
Q 1363 397 1844 397 
Q 2081 397 2348 469 
Q 2616 541 2906 684 
L 2797 116 
Q 2547 13 2283 -39 
Q 2019 -91 1741 -91 
Q 1044 -91 669 257 
Q 294 606 294 1253 
Q 294 1797 489 2255 
Q 684 2713 1069 3078 
Q 1331 3328 1684 3456 
Q 2038 3584 2456 3584 
Q 2700 3584 2940 3529 
Q 3181 3475 3431 3366 
z
" transform="scale(0.015625)"/>
     </defs>
     <use xlink:href="#DejaVuSans-Oblique-63"/>
    </g>
   </g>
   <g id="text_16">
    <!-- $v$ -->
    <g style="fill: #ff0000" transform="translate(82.980161 207.28816) scale(0.12 -0.12)">
     <defs>
      <path id="DejaVuSans-Oblique-76" d="M 459 3500 
L 1069 3500 
L 1581 525 
L 3256 3500 
L 3866 3500 
L 1875 0 
L 1100 0 
L 459 3500 
z
" transform="scale(0.015625)"/>
     </defs>
     <use xlink:href="#DejaVuSans-Oblique-76" transform="translate(0 0.3125)"/>
    </g>
   </g>
   <g id="text_17">
    <!-- $c\sqrt{1-v^2/c^2}$ -->
    <g style="fill: #008000" transform="translate(91.551475 143.460858) scale(0.12 -0.12)">
     <defs>
      <path id="STIXSizeOneSym-Regular-221a" d="M 6970 9933 
L 3373 -1888 
L 3104 -1888 
L 1626 2918 
Q 1555 3149 1465 3251 
Q 1376 3354 1229 3354 
Q 1011 3354 794 3181 
L 717 3309 
L 1766 4115 
L 1926 4115 
L 3379 -602 
L 3405 -602 
L 6605 9933 
L 6970 9933 
z
" transform="scale(0.015625)"/>
      <path id="DejaVuSans-31" d="M 794 531 
L 1825 531 
L 1825 4091 
L 703 3866 
L 703 4441 
L 1819 4666 
L 2450 4666 
L 2450 531 
L 3481 531 
L 3481 0 
L 794 0 
L 794 531 
z
" transform="scale(0.015625)"/>
      <path id="DejaVuSans-2212" d="M 678 2272 
L 4684 2272 
L 4684 1741 
L 678 1741 
L 678 2272 
z
" transform="scale(0.015625)"/>
      <path id="DejaVuSans-32" d="M 1228 531 
L 3431 531 
L 3431 0 
L 469 0 
L 469 531 
Q 828 903 1448 1529 
Q 2069 2156 2228 2338 
Q 2531 2678 2651 2914 
Q 2772 3150 2772 3378 
Q 2772 3750 2511 3984 
Q 2250 4219 1831 4219 
Q 1534 4219 1204 4116 
Q 875 4013 500 3803 
L 500 4441 
Q 881 4594 1212 4672 
Q 1544 4750 1819 4750 
Q 2544 4750 2975 4387 
Q 3406 4025 3406 3419 
Q 3406 3131 3298 2873 
Q 3191 2616 2906 2266 
Q 2828 2175 2409 1742 
Q 1991 1309 1228 531 
z
" transform="scale(0.015625)"/>
      <path id="DejaVuSans-2f" d="M 1625 4666 
L 2156 4666 
L 531 -594 
L 0 -594 
L 1625 4666 
z
" transform="scale(0.015625)"/>
     </defs>
     <use xlink:href="#DejaVuSans-Oblique-63" transform="translate(0 0.15625)"/>
     <use xlink:href="#STIXSizeOneSym-Regular-221a" transform="translate(54.980469 11.8125) scale(0.707977)"/>
     <use xlink:href="#DejaVuSans-31" transform="translate(142.263214 0.515625)"/>
     <use xlink:href="#DejaVuSans-2212" transform="translate(225.368683 0.515625)"/>
     <use xlink:href="#DejaVuSans-Oblique-76" transform="translate(328.640167 0.515625)"/>
     <use xlink:href="#DejaVuSans-32" transform="translate(392.286001 38.796875) scale(0.7)"/>
     <use xlink:href="#DejaVuSans-2f" transform="translate(439.556508 0.515625)"/>
     <use xlink:href="#DejaVuSans-Oblique-63" transform="translate(473.247915 0.515625)"/>
     <use xlink:href="#DejaVuSans-32" transform="translate(532.878279 38.796875) scale(0.7)"/>
     <path d="M 129.763214 115.5 
L 129.763214 121.75 
L 592.648787 121.75 
L 592.648787 115.5 
L 129.763214 115.5 
z
"/>
    </g>
   </g>
   <g id="text_18">
    <!-- $\theta$ -->
    <g style="fill: #800080" transform="translate(75.551689 200.191181) scale(0.14 -0.14)">
     <defs>
      <path id="DejaVuSans-Oblique-3b8" d="M 2913 2219 
L 925 2219 
Q 791 1284 928 888 
Q 1100 400 1566 400 
Q 2034 400 2391 891 
Q 2703 1322 2913 2219 
z
M 3009 2750 
Q 3094 3638 2984 3950 
Q 2813 4444 2353 4444 
Q 1875 4444 1525 3956 
Q 1250 3563 1034 2750 
L 3009 2750 
z
M 2444 4913 
Q 3194 4913 3494 4250 
Q 3794 3591 3566 2422 
Q 3341 1256 2781 594 
Q 2225 -72 1475 -72 
Q 722 -72 425 594 
Q 128 1256 353 2422 
Q 581 3591 1134 4250 
Q 1691 4913 2444 4913 
z
" transform="scale(0.015625)"/>
     </defs>
     <use xlink:href="#DejaVuSans-Oblique-3b8" transform="translate(0 0.234375)"/>
    </g>
   </g>
   <g id="text_19">
    <g id="patch_7">
     <path d="M 75.231693 54.900925 
L 137.271693 54.900925 
Q 143.271693 54.900925 143.271693 48.900925 
L 143.271693 38.00155 
Q 143.271693 32.00155 137.271693 32.00155 
L 75.231693 32.00155 
Q 69.231693 32.00155 69.231693 38.00155 
L 69.231693 48.900925 
Q 69.231693 54.900925 75.231693 54.900925 
z
" style="fill: #f5deb3; opacity: 0.5; stroke: #000000; stroke-width: 0.24; stroke-linejoin: miter"/>
    </g>
    <!-- $\cos\theta = v/c$ -->
    <g transform="translate(75.231693 46.33405) scale(0.12 -0.12)">
     <defs>
      <path id="DejaVuSans-63" d="M 3122 3366 
L 3122 2828 
Q 2878 2963 2633 3030 
Q 2388 3097 2138 3097 
Q 1578 3097 1268 2742 
Q 959 2388 959 1747 
Q 959 1106 1268 751 
Q 1578 397 2138 397 
Q 2388 397 2633 464 
Q 2878 531 3122 666 
L 3122 134 
Q 2881 22 2623 -34 
Q 2366 -91 2075 -91 
Q 1284 -91 818 406 
Q 353 903 353 1747 
Q 353 2603 823 3093 
Q 1294 3584 2113 3584 
Q 2378 3584 2631 3529 
Q 2884 3475 3122 3366 
z
" transform="scale(0.015625)"/>
      <path id="DejaVuSans-6f" d="M 1959 3097 
Q 1497 3097 1228 2736 
Q 959 2375 959 1747 
Q 959 1119 1226 758 
Q 1494 397 1959 397 
Q 2419 397 2687 759 
Q 2956 1122 2956 1747 
Q 2956 2369 2687 2733 
Q 2419 3097 1959 3097 
z
M 1959 3584 
Q 2709 3584 3137 3096 
Q 3566 2609 3566 1747 
Q 3566 888 3137 398 
Q 2709 -91 1959 -91 
Q 1206 -91 779 398 
Q 353 888 353 1747 
Q 353 2609 779 3096 
Q 1206 3584 1959 3584 
z
" transform="scale(0.015625)"/>
      <path id="DejaVuSans-73" d="M 2834 3397 
L 2834 2853 
Q 2591 2978 2328 3040 
Q 2066 3103 1784 3103 
Q 1356 3103 1142 2972 
Q 928 2841 928 2578 
Q 928 2378 1081 2264 
Q 1234 2150 1697 2047 
L 1894 2003 
Q 2506 1872 2764 1633 
Q 3022 1394 3022 966 
Q 3022 478 2636 193 
Q 2250 -91 1575 -91 
Q 1294 -91 989 -36 
Q 684 19 347 128 
L 347 722 
Q 666 556 975 473 
Q 1284 391 1588 391 
Q 1994 391 2212 530 
Q 2431 669 2431 922 
Q 2431 1156 2273 1281 
Q 2116 1406 1581 1522 
L 1381 1569 
Q 847 1681 609 1914 
Q 372 2147 372 2553 
Q 372 3047 722 3315 
Q 1072 3584 1716 3584 
Q 2034 3584 2315 3537 
Q 2597 3491 2834 3397 
z
" transform="scale(0.015625)"/>
      <path id="DejaVuSans-3d" d="M 678 2906 
L 4684 2906 
L 4684 2381 
L 678 2381 
L 678 2906 
z
M 678 1631 
L 4684 1631 
L 4684 1100 
L 678 1100 
L 678 1631 
z
" transform="scale(0.015625)"/>
     </defs>
     <use xlink:href="#DejaVuSans-63" transform="translate(0 0.234375)"/>
     <use xlink:href="#DejaVuSans-6f" transform="translate(54.980469 0.234375)"/>
     <use xlink:href="#DejaVuSans-73" transform="translate(116.162109 0.234375)"/>
     <use xlink:href="#DejaVuSans-Oblique-3b8" transform="translate(184.497395 0.234375)"/>
     <use xlink:href="#DejaVuSans-3d" transform="translate(265.161458 0.234375)"/>
     <use xlink:href="#DejaVuSans-Oblique-76" transform="translate(368.432942 0.234375)"/>
     <use xlink:href="#DejaVuSans-2f" transform="translate(427.612629 0.234375)"/>
     <use xlink:href="#DejaVuSans-Oblique-63" transform="translate(461.304036 0.234375)"/>
    </g>
   </g>
   <g id="text_20">
    <!-- Geometric Relationship: $\vec{C} = \vec{V} + \vec{U}$ -->
    <g transform="translate(7.2 20.04) scale(0.12 -0.12)">
     <defs>
      <path id="TimesNewRomanPSMT-47" d="M 3928 4334 
L 4038 2997 
L 3928 2997 
Q 3763 3497 3500 3750 
Q 3122 4116 2528 4116 
Q 1719 4116 1297 3475 
Q 944 2934 944 2188 
Q 944 1581 1178 1081 
Q 1413 581 1792 348 
Q 2172 116 2572 116 
Q 2806 116 3025 175 
Q 3244 234 3447 350 
L 3447 1575 
Q 3447 1894 3398 1992 
Q 3350 2091 3248 2142 
Q 3147 2194 2891 2194 
L 2891 2313 
L 4531 2313 
L 4531 2194 
L 4453 2194 
Q 4209 2194 4119 2031 
Q 4056 1916 4056 1575 
L 4056 278 
Q 3697 84 3347 -6 
Q 2997 -97 2569 -97 
Q 1341 -97 703 691 
Q 225 1281 225 2053 
Q 225 2613 494 3125 
Q 813 3734 1369 4063 
Q 1834 4334 2469 4334 
Q 2700 4334 2889 4296 
Q 3078 4259 3425 4131 
Q 3600 4066 3659 4066 
Q 3719 4066 3761 4120 
Q 3803 4175 3813 4334 
L 3928 4334 
z
" transform="scale(0.015625)"/>
      <path id="TimesNewRomanPSMT-72" d="M 1038 2947 
L 1038 2303 
Q 1397 2947 1775 2947 
Q 1947 2947 2059 2842 
Q 2172 2738 2172 2600 
Q 2172 2478 2090 2393 
Q 2009 2309 1897 2309 
Q 1788 2309 1652 2417 
Q 1516 2525 1450 2525 
Q 1394 2525 1328 2463 
Q 1188 2334 1038 2041 
L 1038 669 
Q 1038 431 1097 309 
Q 1138 225 1241 169 
Q 1344 113 1538 113 
L 1538 0 
L 72 0 
L 72 113 
Q 291 113 397 181 
Q 475 231 506 341 
Q 522 394 522 644 
L 522 1753 
Q 522 2253 501 2348 
Q 481 2444 426 2487 
Q 372 2531 291 2531 
Q 194 2531 72 2484 
L 41 2597 
L 906 2947 
L 1038 2947 
z
" transform="scale(0.015625)"/>
      <path id="TimesNewRomanPSMT-69" d="M 928 4444 
Q 1059 4444 1151 4351 
Q 1244 4259 1244 4128 
Q 1244 3997 1151 3903 
Q 1059 3809 928 3809 
Q 797 3809 703 3903 
Q 609 3997 609 4128 
Q 609 4259 701 4351 
Q 794 4444 928 4444 
z
M 1188 2947 
L 1188 647 
Q 1188 378 1227 289 
Q 1266 200 1342 156 
Q 1419 113 1622 113 
L 1622 0 
L 231 0 
L 231 113 
Q 441 113 512 153 
Q 584 194 626 287 
Q 669 381 669 647 
L 669 1750 
Q 669 2216 641 2353 
Q 619 2453 572 2492 
Q 525 2531 444 2531 
Q 356 2531 231 2484 
L 188 2597 
L 1050 2947 
L 1188 2947 
z
" transform="scale(0.015625)"/>
      <path id="TimesNewRomanPSMT-63" d="M 2631 1088 
Q 2516 522 2178 217 
Q 1841 -88 1431 -88 
Q 944 -88 581 321 
Q 219 731 219 1428 
Q 219 2103 620 2525 
Q 1022 2947 1584 2947 
Q 2006 2947 2278 2723 
Q 2550 2500 2550 2259 
Q 2550 2141 2473 2067 
Q 2397 1994 2259 1994 
Q 2075 1994 1981 2113 
Q 1928 2178 1911 2362 
Q 1894 2547 1784 2644 
Q 1675 2738 1481 2738 
Q 1169 2738 978 2506 
Q 725 2200 725 1697 
Q 725 1184 976 792 
Q 1228 400 1656 400 
Q 1963 400 2206 609 
Q 2378 753 2541 1131 
L 2631 1088 
z
" transform="scale(0.015625)"/>
      <path id="TimesNewRomanPSMT-52" d="M 4325 0 
L 3194 0 
L 1759 1981 
Q 1600 1975 1500 1975 
Q 1459 1975 1412 1976 
Q 1366 1978 1316 1981 
L 1316 750 
Q 1316 350 1403 253 
Q 1522 116 1759 116 
L 1925 116 
L 1925 0 
L 109 0 
L 109 116 
L 269 116 
Q 538 116 653 291 
Q 719 388 719 750 
L 719 3488 
Q 719 3888 631 3984 
Q 509 4122 269 4122 
L 109 4122 
L 109 4238 
L 1653 4238 
Q 2328 4238 2648 4139 
Q 2969 4041 3192 3777 
Q 3416 3513 3416 3147 
Q 3416 2756 3161 2468 
Q 2906 2181 2372 2063 
L 3247 847 
Q 3547 428 3762 290 
Q 3978 153 4325 116 
L 4325 0 
z
M 1316 2178 
Q 1375 2178 1419 2176 
Q 1463 2175 1491 2175 
Q 2097 2175 2405 2437 
Q 2713 2700 2713 3106 
Q 2713 3503 2464 3751 
Q 2216 4000 1806 4000 
Q 1625 4000 1316 3941 
L 1316 2178 
z
" transform="scale(0.015625)"/>
      <path id="TimesNewRomanPSMT-6c" d="M 1184 4444 
L 1184 647 
Q 1184 378 1223 290 
Q 1263 203 1344 158 
Q 1425 113 1647 113 
L 1647 0 
L 244 0 
L 244 113 
Q 441 113 512 153 
Q 584 194 625 287 
Q 666 381 666 647 
L 666 3247 
Q 666 3731 644 3842 
Q 622 3953 573 3993 
Q 525 4034 450 4034 
Q 369 4034 244 3984 
L 191 4094 
L 1044 4444 
L 1184 4444 
z
" transform="scale(0.015625)"/>
      <path id="TimesNewRomanPSMT-61" d="M 1822 413 
Q 1381 72 1269 19 
Q 1100 -59 909 -59 
Q 613 -59 420 144 
Q 228 347 228 678 
Q 228 888 322 1041 
Q 450 1253 767 1440 
Q 1084 1628 1822 1897 
L 1822 2009 
Q 1822 2438 1686 2597 
Q 1550 2756 1291 2756 
Q 1094 2756 978 2650 
Q 859 2544 859 2406 
L 866 2225 
Q 866 2081 792 2003 
Q 719 1925 600 1925 
Q 484 1925 411 2006 
Q 338 2088 338 2228 
Q 338 2497 613 2722 
Q 888 2947 1384 2947 
Q 1766 2947 2009 2819 
Q 2194 2722 2281 2516 
Q 2338 2381 2338 1966 
L 2338 994 
Q 2338 584 2353 492 
Q 2369 400 2405 369 
Q 2441 338 2488 338 
Q 2538 338 2575 359 
Q 2641 400 2828 588 
L 2828 413 
Q 2478 -56 2159 -56 
Q 2006 -56 1915 50 
Q 1825 156 1822 413 
z
M 1822 616 
L 1822 1706 
Q 1350 1519 1213 1441 
Q 966 1303 859 1153 
Q 753 1003 753 825 
Q 753 600 887 451 
Q 1022 303 1197 303 
Q 1434 303 1822 616 
z
" transform="scale(0.015625)"/>
      <path id="TimesNewRomanPSMT-68" d="M 1041 4444 
L 1041 2350 
Q 1388 2731 1591 2839 
Q 1794 2947 1997 2947 
Q 2241 2947 2416 2812 
Q 2591 2678 2675 2391 
Q 2734 2191 2734 1659 
L 2734 647 
Q 2734 375 2778 275 
Q 2809 200 2884 156 
Q 2959 113 3159 113 
L 3159 0 
L 1753 0 
L 1753 113 
L 1819 113 
Q 2019 113 2097 173 
Q 2175 234 2206 353 
Q 2216 403 2216 647 
L 2216 1659 
Q 2216 2128 2167 2275 
Q 2119 2422 2012 2495 
Q 1906 2569 1756 2569 
Q 1603 2569 1437 2487 
Q 1272 2406 1041 2159 
L 1041 647 
Q 1041 353 1073 281 
Q 1106 209 1195 161 
Q 1284 113 1503 113 
L 1503 0 
L 84 0 
L 84 113 
Q 275 113 384 172 
Q 447 203 484 290 
Q 522 378 522 647 
L 522 3238 
Q 522 3728 498 3840 
Q 475 3953 426 3993 
Q 378 4034 297 4034 
Q 231 4034 84 3984 
L 41 4094 
L 897 4444 
L 1041 4444 
z
" transform="scale(0.015625)"/>
      <path id="TimesNewRomanPSMT-3a" d="M 903 2950 
Q 1047 2950 1148 2848 
Q 1250 2747 1250 2603 
Q 1250 2459 1148 2357 
Q 1047 2256 903 2256 
Q 759 2256 657 2357 
Q 556 2459 556 2603 
Q 556 2747 657 2848 
Q 759 2950 903 2950 
z
M 897 609 
Q 1044 609 1145 506 
Q 1247 403 1247 259 
Q 1247 116 1144 14 
Q 1041 -88 897 -88 
Q 753 -88 651 14 
Q 550 116 550 259 
Q 550 403 651 506 
Q 753 609 897 609 
z
" transform="scale(0.015625)"/>
      <path id="DejaVuSans-20d7" d="M -3009 4066 
L -3009 4378 
L -694 4378 
L -1106 4863 
L -713 4863 
L -166 4222 
L -713 3581 
L -1106 3581 
L -694 4066 
L -3009 4066 
z
" transform="scale(0.015625)"/>
      <path id="DejaVuSans-Oblique-43" d="M 4447 4306 
L 4319 3641 
Q 4019 3944 3683 4091 
Q 3347 4238 2956 4238 
Q 2422 4238 2017 3981 
Q 1613 3725 1319 3200 
Q 1131 2863 1032 2486 
Q 934 2109 934 1728 
Q 934 1091 1264 756 
Q 1594 422 2222 422 
Q 2656 422 3056 561 
Q 3456 700 3834 978 
L 3688 231 
Q 3316 72 2936 -9 
Q 2556 -91 2175 -91 
Q 1278 -91 773 396 
Q 269 884 269 1753 
Q 269 2309 461 2846 
Q 653 3384 1013 3828 
Q 1394 4300 1883 4525 
Q 2372 4750 3022 4750 
Q 3422 4750 3780 4639 
Q 4138 4528 4447 4306 
z
" transform="scale(0.015625)"/>
      <path id="DejaVuSans-Oblique-56" d="M 1319 0 
L 500 4666 
L 1119 4666 
L 1797 653 
L 4063 4666 
L 4750 4666 
L 2053 0 
L 1319 0 
z
" transform="scale(0.015625)"/>
      <path id="DejaVuSans-2b" d="M 2944 4013 
L 2944 2272 
L 4684 2272 
L 4684 1741 
L 2944 1741 
L 2944 0 
L 2419 0 
L 2419 1741 
L 678 1741 
L 678 2272 
L 2419 2272 
L 2419 4013 
L 2944 4013 
z
" transform="scale(0.015625)"/>
      <path id="DejaVuSans-Oblique-55" d="M 991 4666 
L 1625 4666 
L 1075 1831 
Q 1041 1641 1027 1517 
Q 1013 1394 1013 1300 
Q 1013 869 1253 645 
Q 1494 422 1959 422 
Q 2563 422 2898 753 
Q 3234 1084 3378 1831 
L 3928 4666 
L 4563 4666 
L 4000 1753 
Q 3816 809 3300 359 
Q 2784 -91 1888 -91 
Q 1188 -91 780 261 
Q 372 613 372 1216 
Q 372 1325 387 1461 
Q 403 1597 434 1753 
L 991 4666 
z
" transform="scale(0.015625)"/>
     </defs>
     <use xlink:href="#TimesNewRomanPSMT-47" transform="translate(0 0.25)"/>
     <use xlink:href="#TimesNewRomanPSMT-65" transform="translate(72.216797 0.25)"/>
     <use xlink:href="#TimesNewRomanPSMT-6f" transform="translate(116.601562 0.25)"/>
     <use xlink:href="#TimesNewRomanPSMT-6d" transform="translate(166.601562 0.25)"/>
     <use xlink:href="#TimesNewRomanPSMT-65" transform="translate(244.384766 0.25)"/>
     <use xlink:href="#TimesNewRomanPSMT-74" transform="translate(288.769531 0.25)"/>
     <use xlink:href="#TimesNewRomanPSMT-72" transform="translate(316.552734 0.25)"/>
     <use xlink:href="#TimesNewRomanPSMT-69" transform="translate(349.853516 0.25)"/>
     <use xlink:href="#TimesNewRomanPSMT-63" transform="translate(377.636719 0.25)"/>
     <use xlink:href="#TimesNewRomanPSMT-20" transform="translate(422.021484 0.25)"/>
     <use xlink:href="#TimesNewRomanPSMT-52" transform="translate(447.021484 0.25)"/>
     <use xlink:href="#TimesNewRomanPSMT-65" transform="translate(513.720703 0.25)"/>
     <use xlink:href="#TimesNewRomanPSMT-6c" transform="translate(558.105469 0.25)"/>
     <use xlink:href="#TimesNewRomanPSMT-61" transform="translate(585.888672 0.25)"/>
     <use xlink:href="#TimesNewRomanPSMT-74" transform="translate(630.273438 0.25)"/>
     <use xlink:href="#TimesNewRomanPSMT-69" transform="translate(658.056641 0.25)"/>
     <use xlink:href="#TimesNewRomanPSMT-6f" transform="translate(685.839844 0.25)"/>
     <use xlink:href="#TimesNewRomanPSMT-6e" transform="translate(735.839844 0.25)"/>
     <use xlink:href="#TimesNewRomanPSMT-73" transform="translate(785.839844 0.25)"/>
     <use xlink:href="#TimesNewRomanPSMT-68" transform="translate(824.755859 0.25)"/>
     <use xlink:href="#TimesNewRomanPSMT-69" transform="translate(874.755859 0.25)"/>
     <use xlink:href="#TimesNewRomanPSMT-70" transform="translate(902.539062 0.25)"/>
     <use xlink:href="#TimesNewRomanPSMT-3a" transform="translate(952.539062 0.25)"/>
     <use xlink:href="#TimesNewRomanPSMT-20" transform="translate(980.322266 0.25)"/>
     <use xlink:href="#DejaVuSans-20d7" transform="translate(1073.793945 31.015625)"/>
     <use xlink:href="#DejaVuSans-Oblique-43" transform="translate(1005.322266 0.25)"/>
     <use xlink:href="#DejaVuSans-3d" transform="translate(1094.628906 0.25)"/>
     <use xlink:href="#DejaVuSans-20d7" transform="translate(1265.018066 29.703125)"/>
     <use xlink:href="#DejaVuSans-Oblique-56" transform="translate(1197.900391 0.25)"/>
     <use xlink:href="#DejaVuSans-2b" transform="translate(1285.791016 0.25)"/>
     <use xlink:href="#DejaVuSans-20d7" transform="translate(1459.376465 29.703125)"/>
     <use xlink:href="#DejaVuSans-Oblique-55" transform="translate(1389.0625 0.25)"/>
    </g>
   </g>
   <g id="legend_1">
    <g id="patch_8">
     <path d="M 118.373999 91.195 
L 265.573999 91.195 
Q 267.573999 91.195 267.573999 89.195 
L 267.573999 36.595 
Q 267.573999 34.595 265.573999 34.595 
L 118.373999 34.595 
Q 116.373999 34.595 116.373999 36.595 
L 116.373999 89.195 
Q 116.373999 91.195 118.373999 91.195 
z
" style="fill: #ffffff; opacity: 0.8; stroke: #cccccc; stroke-width: 0.24; stroke-linejoin: miter"/>
    </g>
    <g id="patch_9">
     <path d="M 120.373999 49.295 
L 140.373999 49.295 
L 140.373999 42.295 
L 120.373999 42.295 
z
" style="fill: #0000ff"/>
    </g>
    <g id="text_21">
     <!-- $\vec{C}$ (Vector Light Speed) -->
     <g transform="translate(148.373999 49.295) scale(0.1 -0.1)">
      <defs>
       <path id="TimesNewRomanPSMT-56" d="M 4544 4238 
L 4544 4122 
Q 4319 4081 4203 3978 
Q 4038 3825 3909 3509 
L 2431 -97 
L 2316 -97 
L 728 3556 
Q 606 3838 556 3900 
Q 478 3997 364 4051 
Q 250 4106 56 4122 
L 56 4238 
L 1788 4238 
L 1788 4122 
Q 1494 4094 1406 4022 
Q 1319 3950 1319 3838 
Q 1319 3681 1463 3350 
L 2541 866 
L 3541 3319 
Q 3688 3681 3688 3822 
Q 3688 3913 3597 3995 
Q 3506 4078 3291 4113 
Q 3275 4116 3238 4122 
L 3238 4238 
L 4544 4238 
z
" transform="scale(0.015625)"/>
       <path id="TimesNewRomanPSMT-4c" d="M 3669 1172 
L 3772 1150 
L 3409 0 
L 128 0 
L 128 116 
L 288 116 
Q 556 116 672 291 
Q 738 391 738 753 
L 738 3488 
Q 738 3884 650 3984 
Q 528 4122 288 4122 
L 128 4122 
L 128 4238 
L 2047 4238 
L 2047 4122 
Q 1709 4125 1573 4059 
Q 1438 3994 1388 3894 
Q 1338 3794 1338 3416 
L 1338 753 
Q 1338 494 1388 397 
Q 1425 331 1503 300 
Q 1581 269 1991 269 
L 2300 269 
Q 2788 269 2984 341 
Q 3181 413 3343 595 
Q 3506 778 3669 1172 
z
" transform="scale(0.015625)"/>
       <path id="TimesNewRomanPSMT-67" d="M 966 1044 
Q 703 1172 562 1401 
Q 422 1631 422 1909 
Q 422 2334 742 2640 
Q 1063 2947 1563 2947 
Q 1972 2947 2272 2747 
L 2878 2747 
Q 3013 2747 3034 2739 
Q 3056 2731 3066 2713 
Q 3084 2684 3084 2613 
Q 3084 2531 3069 2500 
Q 3059 2484 3036 2475 
Q 3013 2466 2878 2466 
L 2506 2466 
Q 2681 2241 2681 1891 
Q 2681 1491 2375 1206 
Q 2069 922 1553 922 
Q 1341 922 1119 984 
Q 981 866 932 777 
Q 884 688 884 625 
Q 884 572 936 522 
Q 988 472 1138 450 
Q 1225 438 1575 428 
Q 2219 413 2409 384 
Q 2700 344 2873 169 
Q 3047 -6 3047 -263 
Q 3047 -616 2716 -925 
Q 2228 -1381 1444 -1381 
Q 841 -1381 425 -1109 
Q 191 -953 191 -784 
Q 191 -709 225 -634 
Q 278 -519 444 -313 
Q 466 -284 763 25 
Q 600 122 533 198 
Q 466 275 466 372 
Q 466 481 555 628 
Q 644 775 966 1044 
z
M 1509 2797 
Q 1278 2797 1122 2612 
Q 966 2428 966 2047 
Q 966 1553 1178 1281 
Q 1341 1075 1591 1075 
Q 1828 1075 1981 1253 
Q 2134 1431 2134 1813 
Q 2134 2309 1919 2591 
Q 1759 2797 1509 2797 
z
M 934 0 
Q 788 -159 713 -296 
Q 638 -434 638 -550 
Q 638 -700 819 -813 
Q 1131 -1006 1722 -1006 
Q 2284 -1006 2551 -807 
Q 2819 -609 2819 -384 
Q 2819 -222 2659 -153 
Q 2497 -84 2016 -72 
Q 1313 -53 934 0 
z
" transform="scale(0.015625)"/>
      </defs>
      <use xlink:href="#DejaVuSans-20d7" transform="translate(68.47168 31.015625)"/>
      <use xlink:href="#DejaVuSans-Oblique-43" transform="translate(0 0.25)"/>
      <use xlink:href="#TimesNewRomanPSMT-20" transform="translate(69.824219 0.25)"/>
      <use xlink:href="#TimesNewRomanPSMT-28" transform="translate(94.824219 0.25)"/>
      <use xlink:href="#TimesNewRomanPSMT-56" transform="translate(128.125 0.25)"/>
      <use xlink:href="#TimesNewRomanPSMT-65" transform="translate(200.341797 0.25)"/>
      <use xlink:href="#TimesNewRomanPSMT-63" transform="translate(244.726562 0.25)"/>
      <use xlink:href="#TimesNewRomanPSMT-74" transform="translate(289.111328 0.25)"/>
      <use xlink:href="#TimesNewRomanPSMT-6f" transform="translate(316.894531 0.25)"/>
      <use xlink:href="#TimesNewRomanPSMT-72" transform="translate(366.894531 0.25)"/>
      <use xlink:href="#TimesNewRomanPSMT-20" transform="translate(400.195312 0.25)"/>
      <use xlink:href="#TimesNewRomanPSMT-4c" transform="translate(425.195312 0.25)"/>
      <use xlink:href="#TimesNewRomanPSMT-69" transform="translate(486.279297 0.25)"/>
      <use xlink:href="#TimesNewRomanPSMT-67" transform="translate(514.0625 0.25)"/>
      <use xlink:href="#TimesNewRomanPSMT-68" transform="translate(564.0625 0.25)"/>
      <use xlink:href="#TimesNewRomanPSMT-74" transform="translate(614.0625 0.25)"/>
      <use xlink:href="#TimesNewRomanPSMT-20" transform="translate(641.845703 0.25)"/>
      <use xlink:href="#TimesNewRomanPSMT-53" transform="translate(666.845703 0.25)"/>
      <use xlink:href="#TimesNewRomanPSMT-70" transform="translate(722.460938 0.25)"/>
      <use xlink:href="#TimesNewRomanPSMT-65" transform="translate(772.460938 0.25)"/>
      <use xlink:href="#TimesNewRomanPSMT-65" transform="translate(816.845703 0.25)"/>
      <use xlink:href="#TimesNewRomanPSMT-64" transform="translate(861.230469 0.25)"/>
      <use xlink:href="#TimesNewRomanPSMT-29" transform="translate(911.230469 0.25)"/>
     </g>
    </g>
    <g id="patch_10">
     <path d="M 120.373999 67.095 
L 140.373999 67.095 
L 140.373999 60.095 
L 120.373999 60.095 
z
" style="fill: #ff0000"/>
    </g>
    <g id="text_22">
     <!-- $\vec{V}$ (Object Speed) -->
     <g transform="translate(148.373999 67.095) scale(0.1 -0.1)">
      <defs>
       <path id="TimesNewRomanPSMT-4f" d="M 2341 4334 
Q 3166 4334 3770 3707 
Q 4375 3081 4375 2144 
Q 4375 1178 3765 540 
Q 3156 -97 2291 -97 
Q 1416 -97 820 525 
Q 225 1147 225 2134 
Q 225 3144 913 3781 
Q 1509 4334 2341 4334 
z
M 2281 4106 
Q 1713 4106 1369 3684 
Q 941 3159 941 2147 
Q 941 1109 1384 550 
Q 1725 125 2284 125 
Q 2881 125 3270 590 
Q 3659 1056 3659 2059 
Q 3659 3147 3231 3681 
Q 2888 4106 2281 4106 
z
" transform="scale(0.015625)"/>
       <path id="TimesNewRomanPSMT-62" d="M 984 2369 
Q 1400 2947 1881 2947 
Q 2322 2947 2650 2570 
Q 2978 2194 2978 1541 
Q 2978 778 2472 313 
Q 2038 -88 1503 -88 
Q 1253 -88 995 3 
Q 738 94 469 275 
L 469 3241 
Q 469 3728 445 3840 
Q 422 3953 372 3993 
Q 322 4034 247 4034 
Q 159 4034 28 3984 
L -16 4094 
L 844 4444 
L 984 4444 
L 984 2369 
z
M 984 2169 
L 984 456 
Q 1144 300 1314 220 
Q 1484 141 1663 141 
Q 1947 141 2192 453 
Q 2438 766 2438 1363 
Q 2438 1913 2192 2208 
Q 1947 2503 1634 2503 
Q 1469 2503 1303 2419 
Q 1178 2356 984 2169 
z
" transform="scale(0.015625)"/>
       <path id="TimesNewRomanPSMT-6a" d="M 925 4447 
Q 1059 4447 1153 4353 
Q 1247 4259 1247 4125 
Q 1247 3994 1153 3900 
Q 1059 3806 925 3806 
Q 794 3806 700 3900 
Q 606 3994 606 4125 
Q 606 4259 700 4353 
Q 794 4447 925 4447 
z
M 1194 2947 
L 1194 66 
Q 1194 -669 881 -1025 
Q 569 -1381 69 -1381 
Q -216 -1381 -353 -1278 
Q -491 -1175 -491 -1066 
Q -491 -956 -414 -878 
Q -338 -800 -234 -800 
Q -153 -800 -69 -841 
Q -16 -863 136 -998 
Q 288 -1134 391 -1134 
Q 466 -1134 537 -1076 
Q 609 -1019 643 -883 
Q 678 -747 678 -294 
L 678 1744 
Q 678 2216 650 2350 
Q 628 2453 581 2492 
Q 534 2531 453 2531 
Q 366 2531 241 2484 
L 197 2597 
L 1059 2947 
L 1194 2947 
z
" transform="scale(0.015625)"/>
      </defs>
      <use xlink:href="#DejaVuSans-20d7" transform="translate(67.117676 30.015625)"/>
      <use xlink:href="#DejaVuSans-Oblique-56" transform="translate(0 0.5625)"/>
      <use xlink:href="#TimesNewRomanPSMT-20" transform="translate(68.408203 0.5625)"/>
      <use xlink:href="#TimesNewRomanPSMT-28" transform="translate(93.408203 0.5625)"/>
      <use xlink:href="#TimesNewRomanPSMT-4f" transform="translate(126.708984 0.5625)"/>
      <use xlink:href="#TimesNewRomanPSMT-62" transform="translate(198.925781 0.5625)"/>
      <use xlink:href="#TimesNewRomanPSMT-6a" transform="translate(248.925781 0.5625)"/>
      <use xlink:href="#TimesNewRomanPSMT-65" transform="translate(276.708984 0.5625)"/>
      <use xlink:href="#TimesNewRomanPSMT-63" transform="translate(321.09375 0.5625)"/>
      <use xlink:href="#TimesNewRomanPSMT-74" transform="translate(365.478516 0.5625)"/>
      <use xlink:href="#TimesNewRomanPSMT-20" transform="translate(393.261719 0.5625)"/>
      <use xlink:href="#TimesNewRomanPSMT-53" transform="translate(418.261719 0.5625)"/>
      <use xlink:href="#TimesNewRomanPSMT-70" transform="translate(473.876953 0.5625)"/>
      <use xlink:href="#TimesNewRomanPSMT-65" transform="translate(523.876953 0.5625)"/>
      <use xlink:href="#TimesNewRomanPSMT-65" transform="translate(568.261719 0.5625)"/>
      <use xlink:href="#TimesNewRomanPSMT-64" transform="translate(612.646484 0.5625)"/>
      <use xlink:href="#TimesNewRomanPSMT-29" transform="translate(662.646484 0.5625)"/>
     </g>
    </g>
    <g id="patch_11">
     <path d="M 120.373999 84.995 
L 140.373999 84.995 
L 140.373999 77.995 
L 120.373999 77.995 
z
" style="fill: #008000"/>
    </g>
    <g id="text_23">
     <!-- $\vec{U} = \vec{C} - \vec{V}$ (Relative Speed) -->
     <g transform="translate(148.373999 84.995) scale(0.1 -0.1)">
      <defs>
       <path id="TimesNewRomanPSMT-76" d="M 53 2863 
L 1400 2863 
L 1400 2747 
L 1313 2747 
Q 1191 2747 1127 2687 
Q 1063 2628 1063 2528 
Q 1063 2419 1128 2269 
L 1794 688 
L 2463 2328 
Q 2534 2503 2534 2594 
Q 2534 2638 2509 2666 
Q 2475 2713 2422 2730 
Q 2369 2747 2206 2747 
L 2206 2863 
L 3141 2863 
L 3141 2747 
Q 2978 2734 2916 2681 
Q 2806 2588 2719 2369 
L 1703 -88 
L 1575 -88 
L 553 2328 
Q 484 2497 421 2570 
Q 359 2644 263 2694 
Q 209 2722 53 2747 
L 53 2863 
z
" transform="scale(0.015625)"/>
      </defs>
      <use xlink:href="#DejaVuSans-20d7" transform="translate(70.313965 29.703125)"/>
      <use xlink:href="#DejaVuSans-Oblique-55" transform="translate(0 0.25)"/>
      <use xlink:href="#DejaVuSans-3d" transform="translate(92.675781 0.25)"/>
      <use xlink:href="#DejaVuSans-20d7" transform="translate(264.418945 31.015625)"/>
      <use xlink:href="#DejaVuSans-Oblique-43" transform="translate(195.947266 0.25)"/>
      <use xlink:href="#DejaVuSans-2212" transform="translate(285.253906 0.25)"/>
      <use xlink:href="#DejaVuSans-20d7" transform="translate(455.643066 29.703125)"/>
      <use xlink:href="#DejaVuSans-Oblique-56" transform="translate(388.525391 0.25)"/>
      <use xlink:href="#TimesNewRomanPSMT-20" transform="translate(456.933594 0.25)"/>
      <use xlink:href="#TimesNewRomanPSMT-28" transform="translate(481.933594 0.25)"/>
      <use xlink:href="#TimesNewRomanPSMT-52" transform="translate(515.234375 0.25)"/>
      <use xlink:href="#TimesNewRomanPSMT-65" transform="translate(581.933594 0.25)"/>
      <use xlink:href="#TimesNewRomanPSMT-6c" transform="translate(626.318359 0.25)"/>
      <use xlink:href="#TimesNewRomanPSMT-61" transform="translate(654.101562 0.25)"/>
      <use xlink:href="#TimesNewRomanPSMT-74" transform="translate(698.486328 0.25)"/>
      <use xlink:href="#TimesNewRomanPSMT-69" transform="translate(726.269531 0.25)"/>
      <use xlink:href="#TimesNewRomanPSMT-76" transform="translate(754.052734 0.25)"/>
      <use xlink:href="#TimesNewRomanPSMT-65" transform="translate(804.052734 0.25)"/>
      <use xlink:href="#TimesNewRomanPSMT-20" transform="translate(848.4375 0.25)"/>
      <use xlink:href="#TimesNewRomanPSMT-53" transform="translate(873.4375 0.25)"/>
      <use xlink:href="#TimesNewRomanPSMT-70" transform="translate(929.052734 0.25)"/>
      <use xlink:href="#TimesNewRomanPSMT-65" transform="translate(979.052734 0.25)"/>
      <use xlink:href="#TimesNewRomanPSMT-65" transform="translate(1023.4375 0.25)"/>
      <use xlink:href="#TimesNewRomanPSMT-64" transform="translate(1067.822266 0.25)"/>
      <use xlink:href="#TimesNewRomanPSMT-29" transform="translate(1117.822266 0.25)"/>
     </g>
    </g>
   </g>
  </g>
 </g>
 <defs>
  <clipPath id="p8dd48f5ebf">
   <rect x="74.408847" y="34.595" width="41.142306" height="170.3275"/>
  </clipPath>
 </defs>
</svg>
